<svg width="360" height="640" viewBox="0 0 360 640" fill="none" xmlns="http://www.w3.org/2000/svg">
<g clip-path="url(#clip0_4_2)">
<rect width="360" height="640" fill="#11ACE1"/>
<path d="M19.4966 210.266L20.18 208.562L18.3743 208.232L-36.6865 198.162L16.9224 182.063L18.6805 181.535L17.8128 179.917L-8.64392 130.59L37.3675 162.466L38.8764 163.511L39.6002 161.824L61.67 110.385L65.4364 166.232L65.5599 168.063L67.3301 167.578L121.307 152.76L79.9926 190.525L78.6377 191.764L80.1213 192.845L125.36 225.808L70.075 217.052L68.2619 216.765L68.3418 218.599L70.7764 274.52L43.1517 225.838L42.2458 224.241L40.8618 225.447L-1.34115 262.217L19.4966 210.266Z" fill="white" fill-opacity="0.3" stroke="white" stroke-width="3"/>
<circle cx="320.5" cy="455.5" r="90" fill="white" fill-opacity="0.3" stroke="white" stroke-width="3"/>
<path d="M-17.463 544.815L6.03075 410.015L111.024 497.761L-17.463 544.815Z" fill="white" fill-opacity="0.3" stroke="white" stroke-width="3"/>
</g>
<defs>
<clipPath id="clip0_4_2">
<rect width="360" height="640" fill="white"/>
</clipPath>
</defs>
</svg>
